<svg id="Componente_1_1" data-name="Componente 1 – 1" xmlns="http://www.w3.org/2000/svg" width="1440" height="329" viewBox="0 0 1440 329">
  <path id="wave3" d="M0,32l48,5.3C96,43,192,53,288,90.7c96,37.3,192,101.3,288,96C672,181,768,107,864,85.3,960,64,1056,96,1152,90.7c96-5.7,192-47.7,240-69.4L1440,0V320H0Z" fill="#19bd2e"/>
  <path id="wave4" d="M0,32l48,5.3C96,43,192,53,288,90.7c96,37.3,192,101.3,288,96C672,181,768,107,864,85.3,960,64,1056,96,1152,90.7c96-5.7,192-47.7,240-69.4L1440,0V320H0Z" transform="translate(0 9)" fill="#f3f4f5"/>
</svg>
